<svg xmlns="http://www.w3.org/2000/svg" viewBox="0 0 44.081 51.963"><defs><style>.a{fill:#fff;}</style></defs><title>clawfinger-face</title><path class="a" d="M11.8,5.583l.057.016c0-.024.007-.048.01-.072.018-.135.069-.173.207-.158.036,0,.072,0,.117,0,.046-.09.123-.162.081-.285-.023-.067.052-.142.146-.139a.241.241,0,0,0,.2-.087A.182.182,0,0,1,12.7,4.8,3.238,3.238,0,0,0,13.11,4.6c.014-.007.033-.007.044-.016a.429.429,0,0,1,.3-.112,1.1,1.1,0,0,0,.342-.129c.1-.043.209-.091.317-.126a.425.425,0,0,0,.216-.155.224.224,0,0,1,.13-.1.487.487,0,0,0,.28-.209.267.267,0,0,1,.141-.106c.088-.032.2-.077.181-.214a.154.154,0,0,1,.027-.1A.1.1,0,0,0,15.1,3.2c-.039-.1.023-.188.144-.239.048-.019.1-.029.148-.048A.338.338,0,0,0,15.5,2.86a.451.451,0,0,1,.361-.164.149.149,0,0,0,.148-.137.064.064,0,0,1,.026-.048c.142-.055.214-.191.327-.28a.343.343,0,0,1,.1-.033c.032-.011.063-.024.107-.041l-.06-.082a.207.207,0,0,0,.114-.176c0-.078.035-.116.115-.11s.149.009.243.014c.131-.215.352-.189.588-.139,0-.056.006-.1.008-.148,0-.133.045-.163.17-.194.144-.035.285.016.438-.006l.054-.276.13.08.023-.006a2.207,2.207,0,0,1,.226-.046c.069-.007.121-.009.161-.09.029-.061.11-.1.175-.137.02-.012.07.008.093.028a.164.164,0,0,0,.212.019A1.056,1.056,0,0,0,19.469.73c.1-.112.191-.116.316-.015a.455.455,0,0,0,.306.067c.039,0,.076-.075.123-.126l.248.032.015-.234L20.57.408c.065.014.044.128.148.085A.7.7,0,0,0,20.784.3.212.212,0,0,1,20.953.09l.173.1c.105-.022.082-.21.238-.192a.269.269,0,0,0,.142.262.076.076,0,0,1,.035.064c-.02.119.05.249-.04.36A.023.023,0,0,0,21.493.7a.686.686,0,0,1,.023.188.573.573,0,0,1-.086.154c.144.018.272.029.315.174a.71.71,0,0,0,.572-.261c.118.021.109.117.107.194a1.563,1.563,0,0,1-.052.259c.122-.094.246-.01.341-.095L22.554,1.2l.116-.132c.062.075.121.143.176.213.072.09.085.088.172,0,.114-.11.233-.214.35-.32l.013-.009c.05-.033.049-.132.132-.114a1,1,0,0,1,.179.079.333.333,0,0,1,.343-.079c.058.021.1-.013.105-.081a1.156,1.156,0,0,1,.048-.225.2.2,0,0,1,.075-.092c.111-.07.219,0,.323.028.022.006.037.082.03.121a.458.458,0,0,1-.066.12.761.761,0,0,0-.031.079l.029.017.123-.17c.049-.012.108.005.17-.054a.534.534,0,0,1,.281-.1.512.512,0,0,1,.187.048c0,.092-.053.181.058.254l.3-.129a.371.371,0,0,0,.122.081.415.415,0,0,0,.272,0,1.075,1.075,0,0,1,.2-.051c.025-.006.06,0,.074-.016.1-.111.212-.036.317-.019s.219.052.341.082a.444.444,0,0,1,.1.295c-.008.074.151.161.23.13.1-.043.186-.05.256.056a.113.113,0,0,0,.107.019,1.272,1.272,0,0,1,.306-.077.15.15,0,0,1,.177.072l-.046.078c.027.009.069.011.074.026.039.118.168.095.242.158.02.018.078,0,.115-.012.141-.053.153-.052.244.062a.137.137,0,0,0,.143.054.763.763,0,0,1,.273.042c.029.007.048.049.076.08-.1.04-.176.071-.252.1l0,.033a1.655,1.655,0,0,1,.256.039c.1.032.053.162.15.241l.118.012a2.073,2.073,0,0,1,.263.024.093.093,0,0,1,.07.122.524.524,0,0,1-.049.094.279.279,0,0,0-.319.238c.35.279.366.26.51.233a1.067,1.067,0,0,1,.048.108c.027.077.057.131.157.082.032-.016.09.01.13.029a3.077,3.077,0,0,0,.348.167A.473.473,0,0,0,31,3.28a.482.482,0,0,1,.136,0c.079,0,.149.056.238.019.034-.014.1.035.143.07.014.013,0,.077-.021.106s-.058.036-.1.059a.377.377,0,0,1,.122.2.221.221,0,0,0,.235.163.191.191,0,0,1,.181.1l-.07.094c-.085.04-.174-.112-.251.008l.084.134s0,.013,0,.015a1.071,1.071,0,0,1,.2.183c.01.01.048.009.053,0,.044-.073.064.009.1.015.067-.05.121-.149.224-.125.053.013.095.067.172.125a.22.22,0,0,1,.251.248c.074.014.144.025.214.041.045.009.1.011.132.04a.892.892,0,0,0,.334.15c.066.025.134.048.147.142.006.039.068.07.12.119l-.288.162a.732.732,0,0,0,.358.48.9.9,0,0,0-.136.1.24.24,0,0,0-.059.131c0,.055.055.038.1.046a.384.384,0,0,1,.162.079.608.608,0,0,0,.3.164.336.336,0,0,0,.271.264c.02,0,.047.012.055.026.042.083.125.079.2.106.089.033.2.051.213.186a.133.133,0,0,1-.173.008.258.258,0,0,0-.283.009.531.531,0,0,0,.3.321,1.279,1.279,0,0,1,.457.219,2.979,2.979,0,0,0,.243.189.148.148,0,0,1,.053.089.511.511,0,0,0,.173.306,1.871,1.871,0,0,1,.276.4,1.914,1.914,0,0,0,.242.291.425.425,0,0,0-.05.046q-.057.078.033.1c.02,0,.042,0,.062.006s.06.019.09.027c.078.02.046.132.139.152.056.012.1.071.176.127.147-.046.215.093.3.21-.063.136-.131.256-.314.271a.619.619,0,0,0-.239.105c-.021.012-.03.064-.026.095a.108.108,0,0,0,.095.108.61.61,0,0,1,.147.037.115.115,0,0,1,.083.147c-.014.051.008.077.055.109a1.527,1.527,0,0,1,.227.2c.039.04.018.177-.025.235s-.063.09-.089.126l.326.43c.171.074.185.174.012.364.017.028.037.056.053.087.025.049.06.088.023.157-.027.051-.039.134.065.16.024.006.044.064.049.1a.355.355,0,0,0,.139.282c.067.043.062.128.06.2,0,.088-.01.176-.016.276l.254.1c0,.022.007.058.015.093.029.117.017.25.147.326.03.017.032.081.043.115.113.116.226.225.33.341a.151.151,0,0,1,.025.116.291.291,0,0,0,.042.207,3.425,3.425,0,0,1,.23.452c.018.054.1.091.094.167s-.006.121-.011.182a.885.885,0,0,0-.015.169c.008.069.089.06.128.092.083.068.2.08.257.2.049.1.182.159.273.232.006.017.013.027.012.036-.035.244-.036.243-.265.355-.022.01-.034.04-.066.081l.157.013c.146.007.168.037.132.185a.231.231,0,0,0,0,.051.234.234,0,0,0,.049.033c.135.053.138.053.124.2-.007.069.027.152-.067.2a.308.308,0,0,1,.072.345.641.641,0,0,0-.007.363l-.136.09c0,.153-.008.315,0,.476s0,.141.153.171a.114.114,0,0,1,.107.129c-.007.109,0,.218,0,.339.092.1.136-.078.219-.052.081.1.083.1.017.191-.042.056-.091.107-.152.177a.193.193,0,0,0,.043.078.278.278,0,0,1,.136.229c0,.023.047.052.077.07a.155.155,0,0,1,.082.14c0,.119.021.237.026.355a.426.426,0,0,1-.038.121c.092.013.1.083.118.165a1.739,1.739,0,0,1,.018.647c-.007.051-.015.1-.024.152a.228.228,0,0,0,.162.294.131.131,0,0,1,.113.14.386.386,0,0,1-.02.24.293.293,0,0,0,.015.272c.037.072.054.153.086.225a1.3,1.3,0,0,1,.057.656.152.152,0,0,0,.057.16.112.112,0,0,1,.008.2.252.252,0,0,0-.078.176c-.013.1-.061.2-.005.3.011.02-.017.058-.019.088-.007.08-.045.161.014.242a.159.159,0,0,1,.005.122c-.018.062-.037.116.013.175a.105.105,0,0,1,0,.089.836.836,0,0,0,0,.6.4.4,0,0,1-.017.239c-.032.1-.115.179-.134.276a1.923,1.923,0,0,0,0,.387c0,.035.026.078.013.1a.152.152,0,0,0,.095.236c0,.055,0,.1,0,.148s0,.1-.063.124-.075.082-.07.143a.337.337,0,0,1-.187.362c-.072.035-.079.1-.112.158a1.078,1.078,0,0,0-.141.324c-.01.046-.065.082-.08.1-.052.106-.095.186-.132.269a.574.574,0,0,0-.039.128c-.009.05,0,.1-.016.152a.684.684,0,0,0-.044.35.115.115,0,0,1-.02.089,1.087,1.087,0,0,0-.12.349c-.042.132-.05.286-.179.383a.214.214,0,0,0-.052.11c-.015.049-.005.12-.036.149-.141.134-.083.306-.1.46l-.127.15a.145.145,0,0,0-.016.2.147.147,0,0,1-.01.111.785.785,0,0,0-.1.432.1.1,0,0,1-.009.045c-.028.071-.058.142-.086.213a1.75,1.75,0,0,0-.084.218.285.285,0,0,1-.095.172c-.022.018-.022.066-.025.1-.012.135-.02.27-.033.4,0,.028-.016.076-.033.08-.1.021-.084.109-.11.17s-.02.114-.074.163c-.03.027-.019.106-.016.161a.248.248,0,0,1-.05.215c.035.092.1.179.017.278a.069.069,0,0,0,0,.058.332.332,0,0,1-.02.273.291.291,0,0,0,.008.257c.045.105.087.2-.049.313l.152-.02a.481.481,0,0,1,.046.421,3.467,3.467,0,0,1-.144.415c.054.061.112.132.175.2a.164.164,0,0,0,.2.005.209.209,0,0,1,.1-.038c.092,0,.184.009.29.016l.078.127c-.025.027-.047.055-.073.079s-.058.043-.077.058c-.013.165-.026.319-.034.474,0,.056.019.114.013.17s-.019.133-.054.15a.252.252,0,0,0-.13.3.179.179,0,0,1,0,.046c.152.032.177.1.106.231a.744.744,0,0,0-.056.233,1.865,1.865,0,0,0-.022.2.237.237,0,0,0,0,.106.186.186,0,0,1-.046.214.24.24,0,0,0-.081.16c-.01.117-.073.151-.172.16-.031,0-.06.01-.106.017.015.064.026.118.04.172.009.035.026.068.032.1s.029.117-.033.137a.2.2,0,0,1-.144-.036l-.184.065c-.038.075-.006.121.039.172.1.115.092.157-.025.249a.519.519,0,0,0-.13.168c-.051.093-.1.209-.239.22-.035,0-.073.065-.1.108a.3.3,0,0,0-.017.109l-.126.042c-.015.076-.025.15-.12.193-.046.022-.059.116-.1.2l-.044-.007a.441.441,0,0,0-.222.44l-.131.031c.007.059-.007.152.025.173.12.077.086.2.133.313-.136.012-.174.128-.257.23l-.163-.23a.131.131,0,0,0,.057-.165c-.022-.053-.035-.108-.056-.174-.005,0-.039.007-.044.022a.156.156,0,0,1-.1.107.158.158,0,0,0-.076.093,3.728,3.728,0,0,0-.088.376.165.165,0,0,0,.059.179c.059.045.061.113,0,.177s-.136.164-.2.249c-.044.057-.018.132-.059.2-.076.125-.069.137-.206.133a.157.157,0,0,1-.062,0c-.089-.049-.134-.007-.165.073a.558.558,0,0,1-.042.068l-.2-.126c-.008.005-.04.018-.039.028.009.109-.058.159-.135.217-.044.033-.053.109-.084.161a.452.452,0,0,1-.073.072c.126.044.065.15.049.227a.6.6,0,0,0-.165.084c-.114.121-.154.141-.3.112a.421.421,0,0,0-.052-.005l-.11-.189c-.036.1-.037.2-.157.176l-.011.028c-.053.118-.183.118-.276.163-.114.055-.15.063-.167.186a.386.386,0,0,0,0,.076c0,.047.016.1-.045.116-.034.006-.075-.026-.127-.046a.434.434,0,0,0-.036.043.568.568,0,0,0-.029.05c-.09-.051-.142-.087-.1-.192s-.074-.147-.161-.135a1.7,1.7,0,0,0-.2.054.271.271,0,0,1-.116.268c-.039.025-.053.125-.043.185.031.18-.1.274-.189.389-.024.031-.095.027-.135.037l-.1.166-.023-.01a.545.545,0,0,1,0,.107.105.105,0,0,0,.072.135c.093.041.115.119.043.183s-.074.129-.121.185c-.021.026-.043.07-.068.072-.105.009-.158.1-.241.143-.046.025-.069.091-.142.068-.01,0-.037.021-.045.038a.278.278,0,0,1-.246.139c.057.112.085.138.191.11a.182.182,0,0,1,.236.124c-.043.062-.1.127-.036.214.037.05.009.1-.024.143s-.082.009-.124,0c-.009,0-.02,0-.009,0a1.73,1.73,0,0,0-.188.179.3.3,0,0,0-.082.2.812.812,0,0,1-.039.2c-.06,0-.109-.014-.134,0s-.031.071-.05.107-.04.1-.072.109c-.23.067-.25.274-.326.449.085.075.166.143.242.216a.147.147,0,0,1,.024.072c.007.03.008.062.017.091a1.251,1.251,0,0,1,.054.156c.012.076-.062.081-.106.113-.025.018-.032.062-.046.092-.054.015-.088-.064-.148-.015-.023.019-.08,0-.149-.008-.01.018-.031.061-.055.1a.167.167,0,0,1-.053.061c-.085.046-.086.049,0,.112a.4.4,0,0,1,.043.054l-.11.146a.258.258,0,0,0-.049.08c-.021.1-.042.188-.167.208-.026.005-.044.064-.079.12l-.149-.161c-.167.061-.19.235-.292.345a.14.14,0,0,0-.023.1c.015.1-.052.149-.124.194a.7.7,0,0,1-.1.064c-.15.061-.2.214-.307.32-.022.023-.023.066-.039.1s-.037.075-.06.078a.354.354,0,0,0-.256.212.107.107,0,0,1-.087.043c-.026-.006-.045-.047-.081-.087a.984.984,0,0,0-.236.035.258.258,0,0,0-.144.225c-.018.136-.02.274-.029.423l-.408.321s-.017,0-.03-.01c-.094-.087-.194-.017-.291-.009-.012,0-.02.056-.036.1-.05.011-.139.01-.144.115a.059.059,0,0,1-.027.037c-.111.062-.222.123-.334.183-.017.009-.043.023-.055.017-.119-.059-.162.033-.223.1a.449.449,0,0,1-.135.09c-.065.032-.134.055-.21.085a.581.581,0,0,0-.61-.017.239.239,0,0,1-.217.033.161.161,0,0,0-.189.035c-.02.021-.082.037-.1.023-.08-.064-.155-.011-.224.005a.386.386,0,0,1-.3-.012.813.813,0,0,0-.217-.055.081.081,0,0,0-.06.006.181.181,0,0,1-.266-.028.349.349,0,0,1-.373.189c-.14-.013-.3.018-.387-.13a.623.623,0,0,1-.361.031.069.069,0,0,0-.057.01c-.034.042-.076.037-.123.044a.215.215,0,0,0-.194.146.176.176,0,0,1-.031.068c-.012.014-.037.016-.061.025l-.107-.094c-.117,0-.2.109-.324.05a.034.034,0,0,0-.028.009.651.651,0,0,0-.045.061,1.2,1.2,0,0,0-.166-.174.254.254,0,0,0-.163-.032,1.6,1.6,0,0,0-.23.071.21.21,0,0,1-.055.013c-.058,0-.116.006-.2.009l-.131-.276a.241.241,0,0,1-.37-.024.245.245,0,0,1-.244.133c-.127-.028-.245-.053-.349.053-.007.007-.03,0-.045,0a.22.22,0,0,0-.238.09c-.047-.044-.085-.084-.129-.118a.192.192,0,0,0-.081-.036c-.08-.014-.161-.02-.24-.036a.11.11,0,0,1-.074-.05c-.031-.1-.116-.089-.189-.1a.978.978,0,0,0-.109,0,.642.642,0,0,1-.222-.02c-.07-.032-.142-.058-.21-.091-.143-.07-.3-.05-.446-.114-.045-.021-.09-.04-.136-.058a.349.349,0,0,0-.086-.029.245.245,0,0,1-.214-.1c-.011-.019-.065-.008-.1-.018a1.7,1.7,0,0,0-.385-.145c-.014,0-.027-.029-.04-.045s-.035-.058-.049-.057c-.11.012-.16-.078-.227-.132a1,1,0,0,0-.31-.159.162.162,0,0,1-.127-.2c-.2.028-.367-.017-.411-.253l-.134.056c-.032-.07-.121-.111-.1-.213,0-.007-.052-.035-.083-.042s-.045.01-.08.019l-.044-.172a.39.39,0,0,1-.292-.193.128.128,0,0,0-.06-.042c-.156-.07-.159-.073-.206-.217-.1-.026-.185-.044-.268-.073a.155.155,0,0,1-.084-.075c-.016-.044-.026-.077-.08-.078A.057.057,0,0,1,15.022,49a1.553,1.553,0,0,1-.131-.273.129.129,0,0,0-.1-.1.389.389,0,0,1-.287-.336.442.442,0,0,0-.219-.332c-.053-.031-.11-.06-.115-.136a.069.069,0,0,0-.034-.046.18.18,0,0,1-.085-.157c0-.034-.047-.091-.068-.089-.149.014-.21-.106-.3-.183-.015-.013-.027-.035-.045-.041-.084-.028-.084-.094-.083-.165,0-.128,0-.256,0-.393l-.05.012c-.113.029-.163-.08-.225-.13a.177.177,0,0,1-.007-.252c.027-.033.015-.1.022-.154a.327.327,0,0,1-.262-.345.68.68,0,0,0-.09-.336c-.035-.058-.055-.135-.156-.115-.024.005-.075-.04-.085-.071a1.879,1.879,0,0,1-.061-.289c0-.026.022-.055.031-.084.021-.075.048-.148-.03-.215-.046-.04-.041-.091,0-.148a.639.639,0,0,0,.063-.178c-.146-.079-.146-.079-.166-.339a.139.139,0,0,1-.132-.136c-.008-.062-.009-.161-.132-.145-.022,0-.056-.065-.081-.1s-.017-.068-.038-.081a.549.549,0,0,1-.2-.161c-.012-.018-.058-.014-.1-.022-.009-.1-.043-.2.042-.294.021-.024.008-.092-.007-.133s-.05-.058-.111-.047-.1-.06-.119-.122a.318.318,0,0,0-.094-.17c-.038-.037-.033-.12-.043-.183a.664.664,0,0,1,0-.1c-.046,0-.087,0-.127-.008s-.063,0-.075-.012c-.131-.159-.293-.062-.46-.058l-.055-.252-.219.033-.108-.207H10.3l-.032.106c-.071.034-.133-.092-.189,0-.073-.058-.078-.161-.183-.184a1.1,1.1,0,0,1-.227-.106.8.8,0,0,0-.569-.809.4.4,0,0,1-.01-.123.249.249,0,0,0-.064-.238.288.288,0,0,1-.035-.114c-.025-.094-.05-.187-.074-.281s.053-.172.02-.269c-.01-.028.042-.077.054-.1L8.9,39.667c-.015-.02-.047-.044-.044-.06.029-.13-.046-.254-.018-.384a.131.131,0,0,0-.029-.093c-.121-.146-.119-.178.03-.306a.246.246,0,0,0,.033-.037c-.033-.119-.062-.239-.1-.356-.011-.032-.059-.051-.1-.085v-.373c.056-.069.111-.151.224-.132.036.006.089.023.1.05s-.018.072-.038.1a1.014,1.014,0,0,1-.092.105l.177.069V38.3c.067,0,.074-.044.088-.092A.126.126,0,0,1,9.28,38.1c-.169-.128-.214-.318-.346-.47l-.208-.035v-.277c.06-.051.113-.04.175.031.044-.058.085-.114.128-.168.011-.014.033-.019.049-.03l.078-.057a.507.507,0,0,0-.068-.078.113.113,0,0,0-.072-.025c-.174.016-.241-.095-.322-.227a.929.929,0,0,1-.113-.27.26.26,0,0,1-.015-.086c.014-.133-.046-.2-.175-.2-.04,0-.091.036-.1-.024s.039-.075.09-.077c.009,0,.018-.009.038-.021L8.4,35.945l-.025-.016-.063.124-.13-.32c-.037-.025-.085-.045-.171.013a.962.962,0,0,1-.316.084c-.076-.264-.074-.226.093-.5A.571.571,0,0,0,7.7,35.2a.162.162,0,0,1-.035-.2c.009-.027.019-.069.005-.086a.73.73,0,0,1-.087-.3c-.025-.1-.052-.2.007-.262l-.111-.287c-.194-.114-.207-.085-.226-.624-.074,0-.12-.032-.112-.12a.583.583,0,0,0-.011-.156c-.006-.04-.011-.1-.037-.115-.106-.073-.086-.151-.008-.245L6.9,32.673s-.008-.009,0-.017c.067-.208-.06-.343-.183-.478-.052-.057-.1-.109-.037-.188a.07.07,0,0,0,.013-.058c-.058-.113-.068-.252-.177-.338-.013-.01-.038-.018-.037-.027.006-.183-.2-.3-.16-.49a.227.227,0,0,0,0-.11.115.115,0,0,0-.1-.1c-.168-.033-.208-.1-.2-.273a.2.2,0,0,0-.006-.093,1.01,1.01,0,0,1-.028-.422c-.1-.011-.174-.045-.139-.179.008-.033-.039-.1-.077-.122-.149-.093-.185-.266-.289-.389.01-.113-.088-.208-.041-.332a.168.168,0,0,0-.075-.2.137.137,0,0,1-.055-.187.269.269,0,0,0-.049-.267.38.38,0,0,1-.074-.353c0-.01.008-.024,0-.031-.08-.124-.016-.263-.042-.39-.012-.057-.076-.1-.119-.157l-.142-.643c-.09-.059-.059-.154-.072-.236a.227.227,0,0,0-.16-.208c.016-.072.049-.138-.013-.194l.041-.535a.158.158,0,0,1-.052-.24.074.074,0,0,0,.008-.046c-.026-.124.063-.219.087-.332a1.186,1.186,0,0,1,.131-.255.232.232,0,0,0,.028-.111c-.011-.163-.014-.163.134-.263l-.088-.014c-.069-.135-.068-.139.038-.208.172-.11.174-.179,0-.319a.169.169,0,0,1,.177-.127,1.7,1.7,0,0,0,.284-.054c.009-.106.093-.141.185-.169.118-.036.116-.039.109-.157-.006-.1-.021-.2.074-.271.155.032.163.045.128.233.028-.007.057,0,.072-.018a.668.668,0,0,1,.51-.232.127.127,0,0,0,.068-.031.511.511,0,0,1,.331-.1c.049,0,.1-.083.158-.122a.213.213,0,0,1,.118-.055.09.09,0,0,1,.088.106.109.109,0,0,0,.01.038c.094.061.182.121.274.174a.19.19,0,0,0,.1.018.22.22,0,0,1,.208.082.182.182,0,0,0,.176.078.114.114,0,0,1,.117.057,1.07,1.07,0,0,0,.192.2.573.573,0,0,0,.163.065.267.267,0,0,1-.068.316c-.034.017-.087-.069-.124.009a.122.122,0,0,0,.018.158.662.662,0,0,0,.186.133.189.189,0,0,1,.126.124.207.207,0,0,0,.064.075c.068.057.115.153.229.126.074.11.2.076.3.1.138.037.27.093.406.137a.259.259,0,0,0,.1.01c.05,0,.1-.014.15-.02.008,0,.016.012.025.017l.231.122c.034-.014.075-.093.142-.014.019.023.077.018.118.018a.742.742,0,0,1,.328.07.308.308,0,0,1,.186.247,2.387,2.387,0,0,0,.1.323.133.133,0,0,1,.01.086,2.409,2.409,0,0,1-.242.491.25.25,0,0,0,.009.343.2.2,0,0,0,.244-.078.566.566,0,0,1,.1-.094c.019-.153,0-.32.117-.45,0-.071-.082-.144.008-.215.008-.007-.016-.065-.034-.094-.081-.129-.081-.128.014-.257a.379.379,0,0,0,.039-.081.1.1,0,0,1,.125-.06c.061.009.063.062.056.11a.672.672,0,0,0-.03.193c.016.088.126.032.171.078a.453.453,0,0,0,.371.112.15.15,0,0,1,.059.021c.069.031.1.151.18.123a.264.264,0,0,1,.215.048.634.634,0,0,1,.331.289.262.262,0,0,1,0,.276,1.343,1.343,0,0,0-.113.224c-.035.077-.066.156-.1.235a.155.155,0,0,0,.134.2c.174,0,.259-.078.272-.26s.028-.38.047-.569a.228.228,0,0,1,.214-.224,1.251,1.251,0,0,1,.4-.021,2.066,2.066,0,0,0,.385,0c.026,0,.048-.044.076-.063a.269.269,0,0,1,.062-.027c.07.145.127.282.2.409a.369.369,0,0,1,.052.206,3.447,3.447,0,0,0,.008.352.113.113,0,0,0,.053.07c.059.04.123.074.195.116.071-.065.193-.093.232-.222a.162.162,0,0,1-.081-.1,1.236,1.236,0,0,0-.158-.306c-.07-.117-.153-.225-.218-.344a.576.576,0,0,1-.056-.373l.032.056c.085-.016.168-.027.248-.049a.232.232,0,0,0,.116-.071.21.21,0,0,1,.205-.084.73.73,0,0,0,.39-.117c.138.1.048.247.087.381a.238.238,0,0,1,.128.162.213.213,0,0,0,.124.186c.023.009.032.062.042.1.022.075.038.151.061.226a.137.137,0,0,0,.143.1.154.154,0,0,0,.153-.089.132.132,0,0,0-.024-.172.989.989,0,0,1-.225-.394c-.025-.056-.055-.111-.083-.166a.9.9,0,0,1-.07-.139.278.278,0,0,0-.127-.2.29.29,0,0,0,.043-.093c.008-.086.067-.11.134-.128.01,0,.021,0,.032,0,.17-.038.17-.038.156-.209a.135.135,0,0,1,.011-.04c.025,0,.054-.006.082-.007.089,0,.165-.023.187-.128s.112-.119.19-.135a.713.713,0,0,0,.327-.113.548.548,0,0,1,.33-.051.252.252,0,0,0,.153-.032.692.692,0,0,1,.435-.083,2.347,2.347,0,0,0,.408-.022l.014,0c.139-.124.308-.082.469-.089a.187.187,0,0,0,.036-.011c.019-.186-.144-.25-.228-.354-.113.025-.212.053-.313.067a.554.554,0,0,1-.149-.019c-.023,0-.046,0-.069,0l-.182-.016c-.026,0-.06-.017-.076-.006-.076.052-.135-.006-.192-.028-.2.121-.253.136-.411.109-.033-.086.032-.136.086-.161.133-.061.267-.123.4-.178a5.774,5.774,0,0,0,.674-.373c.01-.006.013-.026.037-.077-.079.063-.163,0-.2.088l-.013.007c-.183-.051-.263.118-.392.181-.018.009-.036.031-.053.03a1.493,1.493,0,0,0-.534.132,1.082,1.082,0,0,0-.424.213.277.277,0,0,1-.224.063.381.381,0,0,0-.279.033,1.228,1.228,0,0,1-.222.065.146.146,0,0,1-.119-.041c-.034-.044,0-.079.046-.111.062-.045.111-.107.172-.155.136-.109.276-.212.413-.32a.763.763,0,0,0,.059-.067.367.367,0,0,1,.075-.068,1.091,1.091,0,0,0,.381-.306c.065-.091.059-.135-.031-.217-.03.023-.058.05-.09.07a1.826,1.826,0,0,0-.174.142c-.115.094-.212.223-.375.25a.117.117,0,0,0-.071.051.717.717,0,0,1-.285.242c-.128.071-.3.141-.316.339a.194.194,0,0,0-.256.119.95.95,0,0,1-.162.184l.053.133a.128.128,0,0,1-.065.191c-.085.048-.181.083-.2.2,0,.026-.038.049-.063.068-.05.038-.1.072-.157.11-.065-.068.055-.119.011-.2l-.048.073c-.085.135-.219.117-.348.111-.014,0-.033-.024-.04-.02-.139.086-.2-.05-.276-.107s-.075-.161-.075-.259c0-.144.033-.3-.1-.418a.144.144,0,0,1-.034-.1c0-.225,0-.451,0-.676,0-.082.03-.164.038-.246a.126.126,0,0,0-.089-.148.148.148,0,0,0-.178.064.208.208,0,0,0-.02.116c.006.082.022.164.032.245a2.532,2.532,0,0,1,.029.324.8.8,0,0,1-.155.627c.042.04.074.073.108.105.054.052.108.1.163.153a.313.313,0,0,1,.078.407c-.019,0-.045,0-.055-.013-.1-.109-.222-.086-.345-.081-.071,0-.142,0-.211,0-.043-.09-.026-.136.06-.145.051-.006.1,0,.156-.006s.075-.013.136-.024c-.1-.088-.189-.133-.3-.078a.029.029,0,0,1-.016,0,.813.813,0,0,0-.535.1c-.024-.091-.049-.168-.065-.247a.186.186,0,0,0-.141-.151.36.36,0,0,1-.221-.168c-.06-.1-.2-.139-.212-.275-.107.008-.081-.108-.137-.151-.026-.02-.029-.069-.08-.034-.006,0-.04-.015-.049-.031-.066-.122-.21-.13-.3-.213a3.109,3.109,0,0,0-.308-.255.986.986,0,0,0-.246-.076c.038.058.049.091.072.108.135.1.274.2.408.3a.232.232,0,0,1,.055.091c.017.04.025.08.085.065.015,0,.041.021.056.037.052.058.1.123.152.176a.8.8,0,0,1,.223.626.443.443,0,0,1-.371-.022,1.509,1.509,0,0,1-.521-.232c-.138.018-.214-.082-.3-.157a.086.086,0,0,1-.017-.134.177.177,0,0,0-.1-.241c-.024-.009-.058-.013-.068-.03a1.751,1.751,0,0,0-.313-.319.156.156,0,0,1-.053-.093c0-.117-.094-.159-.162-.22a.191.191,0,0,0-.083-.033,1.046,1.046,0,0,0-.138-.023c-.048,0-.094,0-.113-.062s.012-.092.054-.132a.166.166,0,0,0,.041-.123.244.244,0,0,1,.128-.232,1.511,1.511,0,0,1,.4-.226c.113-.028.21-.1.327-.127a.3.3,0,0,1,.241.021,2.036,2.036,0,0,1,.449-.169,2.956,2.956,0,0,1,.526-.125,2.814,2.814,0,0,1,.335-.1c.03,0,.059-.01.089-.013.121-.015.248.017.357-.076.036-.032.108-.02.162-.034a.7.7,0,0,0,.316-.14.439.439,0,0,1,.264-.041.512.512,0,0,0,.22-.049,1.224,1.224,0,0,1,.371-.074.581.581,0,0,0,.246-.044.493.493,0,0,1,.315.017c.1.03.189.051.269-.023a.794.794,0,0,0,.448.061.267.267,0,0,1,.109,0c.224.06.448.123.671.187a.081.081,0,0,1,.04.021c.087.1.2.07.289.028a.7.7,0,0,1,.326-.044c.133.006.268,0,.4.019a1.42,1.42,0,0,1,.246.082l.366.126a.129.129,0,0,1,.014.038.2.2,0,0,0,.186.189c.042.009.105.029.116.059.036.1.122.133.2.17.121.055.111.054.1.2a.321.321,0,0,0,.082.281c.051.047.072.126.163.113.041.1.175.139.2.228.043.152.143.177.266.182a.3.3,0,0,1,.27.164,1.094,1.094,0,0,0,.294.333,1.455,1.455,0,0,1,.183.185.393.393,0,0,0,.119.086c.1.038.175-.036.148-.14a1.058,1.058,0,0,1-.04-.1.221.221,0,0,1,0-.135.686.686,0,0,0,.082-.407.378.378,0,0,1,.137-.361c-.168-.087-.151-.241-.065-.378-.028-.059-.058-.118-.084-.179a.182.182,0,0,1-.021-.089,1.319,1.319,0,0,0-.015-.456.339.339,0,0,1,.022-.122c.007-.035.031-.079.018-.1-.065-.126.01-.245.017-.365a1.627,1.627,0,0,1,.112-.368c-.035-.037-.075-.083-.118-.125s-.042-.117-.033-.187a.479.479,0,0,0-.006-.25c-.033-.072-.119-.121-.183-.18l-.015,0c-.073-.053-.14-.138-.22-.151-.111-.019-.149-.094-.205-.164a.324.324,0,0,0-.283-.107c-.054,0-.109,0-.176.008,0,.011,0,.04-.007.068,0,.068-.047.09-.107.085-.1-.009-.192-.079-.3-.032-.009,0-.03-.009-.041-.02a.483.483,0,0,0-.34-.1c-.025,0-.05-.031-.073-.049-.046-.037-.083-.1-.152-.024-.015.017-.068,0-.1,0a3.15,3.15,0,0,1-.3-.091.2.2,0,0,1-.088-.082.276.276,0,0,0-.21-.122l-.1.128a.461.461,0,0,0-.327.006.96.96,0,0,1-.562.018c-.029-.01-.049-.048-.078-.079-.045.068-.083.145-.194.1a.248.248,0,0,0-.15.023.259.259,0,0,1-.191.025.066.066,0,0,0-.059.009c-.059.069-.125.035-.183.009a.159.159,0,0,0-.147,0,.653.653,0,0,1-.372.017c-.057-.009-.126-.061-.179.022-.01.015-.06.007-.091.006s-.079-.017-.108-.005c-.087.038-.163.088-.223-.044-.011-.024-.1-.033-.148.029a.222.222,0,0,1-.1.056c-.068.025-.138,0-.211.01s-.145-.056-.224-.092a.355.355,0,0,1-.105.042,2.308,2.308,0,0,1-.738-.032,1.105,1.105,0,0,0-.31-.073.965.965,0,0,1-.275-.094.231.231,0,0,1-.223.079.436.436,0,0,0-.145.034.574.574,0,0,1-.089.021c-.216.012-.239.022-.344.148-.142.036-.256.062-.368.1a.92.92,0,0,0-.186.079.171.171,0,0,1-.162.017.123.123,0,0,0-.178.072,1.066,1.066,0,0,1-.095.131c-.025-.02-.049-.051-.079-.06-.048-.014-.131-.035-.144-.015-.059.086-.167.059-.234.125a.246.246,0,0,1-.213.048.22.22,0,0,0-.216.052.171.171,0,0,1-.139.017c-.089-.021-.16-.031-.214.066a.1.1,0,0,1-.129.039c-.062-.02-.146.023-.22.037a1.006,1.006,0,0,1-.178.031c-.157,0-.315-.01-.472-.012-.045,0-.1,0-.132.026-.091.088-.195.047-.293.049-.072-.1.061-.116.072-.189a.481.481,0,0,1-.3-.3.514.514,0,0,0-.076-.116.145.145,0,0,1,.008-.2c.119-.144.119-.144,0-.322-.036,0-.075,0-.114,0a.117.117,0,0,1-.108-.095,1.706,1.706,0,0,0-.093-.193c-.01-.022-.033-.049-.028-.068a.432.432,0,0,0-.124-.368.335.335,0,0,1-.07-.288c.021-.091.039-.185-.092-.226-.048-.016-.059-.162-.029-.213.016-.028.035-.054.07-.107l-.263.074a1.388,1.388,0,0,1-.175-.182.478.478,0,0,1-.072-.2,2.6,2.6,0,0,1-.008-.342.289.289,0,0,1,.032-.117c.049-.1.12-.193-.02-.277-.013-.008-.017-.039-.017-.058.006-.148-.045-.307.1-.42-.01-.023-.012-.041-.022-.05-.079-.071-.081-.082-.027-.157a.672.672,0,0,0,.144-.422,1.086,1.086,0,0,1,.045-.227c.016-.081.059-.131.135-.126.131-.182.04-.341-.027-.493.037-.077.072-.131.166-.13.069,0,.117-.054.149-.121a1.474,1.474,0,0,1,.117-.174c-.01-.015-.042-.041-.048-.072-.011-.057-.03-.132-.005-.173a2.212,2.212,0,0,1,.244-.311.19.19,0,0,0,.03-.26.646.646,0,0,1-.046-.112l.3-.36c-.043-.069-.072-.132-.018-.2a.075.075,0,0,0,0-.067.209.209,0,0,1,.057-.278c.092-.1.178-.2.275-.3-.166-.113-.06-.271-.107-.4.076-.1.089-.241.235-.285-.032-.194.144-.269.224-.4.038-.06.107-.1.087-.194l-.11-.053c.009-.092-.022-.182.057-.263.029-.031.018-.1.028-.15a.273.273,0,0,1,.036-.115c.069-.083.153-.153.219-.238a.416.416,0,0,0,.1-.2.3.3,0,0,1,.114-.227c.067-.054.1-.141.189-.18.027-.011.035-.07.057-.119.068-.013.149-.025.18-.123.022-.068.092-.1.1-.193a.243.243,0,0,1,.223-.23.446.446,0,0,0-.07-.08c-.015-.009-.04,0-.061,0-.158-.005-.177-.031-.135-.2l.1-.018c.006-.013.015-.023.014-.031A.488.488,0,0,1,9.563,8a2.641,2.641,0,0,0,.374-.43c.013-.021.052-.025.073-.044.064-.061.2-.083.121-.227-.012-.023.031-.086.063-.117a.3.3,0,0,0,.092-.237c0-.046.014-.092.018-.139a.174.174,0,0,1,.107-.141c.039-.02.09-.045.1-.08.061-.158.205-.2.335-.274.084-.046.21-.045.226-.181,0-.007.035-.008.051-.016a2.16,2.16,0,0,0,.463-.285,1.083,1.083,0,0,0,.111-.1,1.776,1.776,0,0,0,.106-.147Zm8.413,34.541a.161.161,0,0,0-.233-.063.34.34,0,0,0-.059.019c-.069.052-.111.012-.159-.037a.67.67,0,0,1-.165-.32.436.436,0,0,1,.032-.333.518.518,0,0,0,.089-.352c-.015-.079-.02-.16-.031-.25a.365.365,0,0,1-.325-.164.576.576,0,0,0-.125-.078.538.538,0,0,1-.065-.053.432.432,0,0,0-.067-.068c-.04-.021-.072-.037-.068-.091a.085.085,0,0,0-.033-.058c-.062-.051-.127-.1-.2-.153a.5.5,0,0,0,0,.434.761.761,0,0,1,.085.165c.027.147.17.246.158.406,0,.008.008.019.015.026.069.072.139.142.209.214a.093.093,0,0,1,.022.04.936.936,0,0,1-.034.708c-.188.082-.3-.031-.412-.142-.064.074-.148.029-.226.037a.53.53,0,0,1-.434-.08l-.261-.062c-.086-.005-.224-.085-.224-.138,0-.107.02-.218-.122-.255.008-.1-.091-.1-.123-.123-.024-.1-.04-.174-.061-.248a1.445,1.445,0,0,1-.08-.277.756.756,0,0,0-.095-.376.2.2,0,0,0-.189-.121.673.673,0,0,0-.148.018.322.322,0,0,1-.345-.064c-.055-.056-.124-.05-.211-.012.132.144.248.28.373.407.109.111.114.282.237.385.017.015,0,.07,0,.106,0,.052-.009.131.019.15.122.084.1.244.214.343.041.009.1.019.153.033a.14.14,0,0,1,.067.032.391.391,0,0,1,.039.393.11.11,0,0,1-.115.054c-.132-.007-.265.018-.4.016a.59.59,0,0,1-.253-.043,1.1,1.1,0,0,1-.42-.382c.078-.106-.011-.213,0-.323,0-.012-.013-.029-.025-.037-.1-.068-.106-.164-.1-.276a.33.33,0,0,0-.054-.233,1.613,1.613,0,0,1-.108-.147c-.02,0-.034,0-.04.007a.27.27,0,0,1-.419,0c-.013-.013-.04-.011-.057-.022s-.042-.033-.039-.041c.035-.093-.073-.082-.1-.135a1.132,1.132,0,0,0-.125-.173c-.047.05-.084.084-.115.124-.093.119-.082.172.022.277a2.086,2.086,0,0,1,.183.233l.046-.036a.3.3,0,0,0,.082.306.181.181,0,0,1,.038.1c.007.1-.02.213.112.262.009,0,.015.028.015.043a.725.725,0,0,0,.15.4.253.253,0,0,1,.024.07.3.3,0,0,0-.1.03,1.947,1.947,0,0,0-.142.145c-.089.094-.176.191-.328.162a.174.174,0,0,0-.092.013.128.128,0,0,0-.067.18.527.527,0,0,0,.064.071c-.136.062-.119.165-.105.272l.132.028c.038.059,0,.144.089.175s.187.083.281.123c.051.021.12.021.154.057.108.113.266.167.352.3.006.01.028.013.043.013.105,0,.2.091.312.024.1.072.21.005.315.008a.165.165,0,0,1,.063,0c.074.031.175.049.214.106a.53.53,0,0,1,.043.256c0,.08-.009.16-.016.263.012-.017.01-.01.006-.009-.177.069-.246.108-.153.318.006.013.014.034.008.044-.07.116.034.191.06.269-.035.07-.062.131-.094.189-.017.031-.034.076-.062.086a.3.3,0,0,0-.2.347.222.222,0,0,1,0,.093c-.044.116-.142.21-.137.346-.083.052-.093.145-.13.224a.329.329,0,0,1-.24.134.771.771,0,0,0-.178-.016c-.115.013-.158.011-.2-.087a.381.381,0,0,0-.2-.2c-.021-.011-.033-.039-.052-.057a.422.422,0,0,0-.234-.109c.027.073.05.134.071.194s.033.107.053.16c.053.142.236.147.3.279l.014.007.228.142c.012.109.026.216.035.324a.116.116,0,0,0,.1.123c.11.022.22.047.33.06a.829.829,0,0,1,.256.056c.084.037.2.092.283-.027.01-.014.035-.019.054-.026l.448-.159c.019-.115,0-.237.111-.317.054-.006.085.018.1.08.038.131.086.26.13.39a.2.2,0,0,1,.2.108.154.154,0,0,0,.2.042c.093-.063.18-.133.27-.2.015-.012.029-.033.046-.036a1.008,1.008,0,0,0,.426-.242c.071-.052.113-.029.15.033l-.214.282c.141.057.25.179.214.261a1.188,1.188,0,0,0-.028.536.3.3,0,0,0,.017.1c.051.136.192.17.267.253.079-.025.137-.043.2-.063a.429.429,0,0,0,.156-.062c.082-.079.218-.121.214-.266a2.926,2.926,0,0,1,.144-.7.443.443,0,0,1,.137-.234,1.9,1.9,0,0,0,.173-.141.151.151,0,0,1,.067-.036.612.612,0,0,1,.532.19.161.161,0,0,1,.031.086,3.965,3.965,0,0,1-.022.7c-.029.151.068.258.053.391.107.061.091.216.221.271.049.02.085.062.146.047a.133.133,0,0,0,.1-.121.363.363,0,0,1,.077-.181.273.273,0,0,0,.069-.181,1.663,1.663,0,0,1,.087-.381.6.6,0,0,0,.073-.245.4.4,0,0,1,.03-.152.179.179,0,0,1,.072-.086.376.376,0,0,1,.274.009c.022,0,.053.032.054.051.013.131.122.2.184.3-.02.12-.018.116.073.182a.291.291,0,0,1,.106.143.513.513,0,0,0,.257.29c.01-.06.016-.1.025-.149a.133.133,0,0,1,.026-.068,2,2,0,0,0,.39-.518c.046-.085.133-.181.231-.155.173.045.367.057.48.245a.235.235,0,0,0,.262.132V45.3l-.1-.031c.031-.2.047-.225.1-.292.1-.119.24-.068.354-.112a.431.431,0,0,0,.065.073.542.542,0,0,1,.265.481c0,.117-.04.238.108.326.086.052.128.178.188.268.167,0,.311.085.48.036a.415.415,0,0,0,.283-.265.309.309,0,0,0-.039-.335c-.051-.055-.046-.163-.066-.248a.357.357,0,0,0-.031-.111c-.055-.08-.124-.151-.179-.231a.242.242,0,0,1-.04-.128.285.285,0,0,1,.158-.275c.194-.108.386-.044.422.173a.233.233,0,0,0,.063.135,1.385,1.385,0,0,1,.2.208c.045.073.085.16.171.151.12-.013.119.126.21.135.011,0,.021,0,.032,0a.322.322,0,0,1,.242.173.2.2,0,0,0,.225.134l.08-.116a.169.169,0,0,0-.145-.145.222.222,0,0,1-.143-.123.33.33,0,0,1,.021-.243.3.3,0,0,0,.021-.251,1.937,1.937,0,0,0-.043-.3,2.384,2.384,0,0,0-.127-.3.329.329,0,0,0-.037-.066.917.917,0,0,1-.232-.558.164.164,0,0,1-.123-.215,1,1,0,0,1,.059-.331c.03-.053.025-.138.071-.2A.32.32,0,0,0,26.7,42.5a.74.74,0,0,0-.015-.172c-.076-.2.151-.2.211-.306.02-.037.108-.048.167-.053s.133.039.172.015c.114-.069.213.007.316.013a.134.134,0,0,1,.091.087.106.106,0,0,1-.06.14.323.323,0,0,0-.166.157.354.354,0,0,1-.159.216c.031.059.056.109.082.158a.555.555,0,0,1,.058.358c-.014.08-.042.17.037.232s.161,0,.227-.033a.186.186,0,0,1,.189-.011c.047.022.1.025.147.049a.2.2,0,0,0,.232-.016c.05-.034.1-.091.183-.065.055.016.08-.04.065-.093-.033-.124-.072-.248-.107-.371-.007-.025-.023-.059-.012-.074.059-.087,0-.172-.036-.224a.6.6,0,0,1-.07-.282l-.119-.079a1.153,1.153,0,0,0,.082-.208.6.6,0,0,1,.324-.416,1.8,1.8,0,0,1,.259-.091c.052-.018.107-.062.153-.054a.514.514,0,0,0,.341-.106.207.207,0,0,1,.088-.024.975.975,0,0,0,.51-.237.3.3,0,0,0-.021-.435,1.56,1.56,0,0,0-.29-.126,1.153,1.153,0,0,0-.189-.06c-.089-.019-.181-.028-.277-.042,0-.1,0-.194,0-.285,0-.04.018-.1.045-.113.126-.053.123-.2.214-.276.019-.016.031-.054.05-.057.109-.017.143-.128.227-.176.029-.016.04-.066.054-.1s.006-.078.025-.106a.512.512,0,0,0,.063-.361.226.226,0,0,1,.092-.2c.121-.1.233-.211.352-.315a.1.1,0,0,0,.026-.138c-.039-.054-.082-.035-.126.015a.44.44,0,0,1-.167.132,1.226,1.226,0,0,0-.365.223.282.282,0,0,1-.288.082l-.1.373a.176.176,0,0,0-.1.164,3.3,3.3,0,0,1-.032.371.3.3,0,0,1-.055.143c-.118.15-.246.292-.363.444-.031.04-.1.056-.092.128,0,.012-.049.044-.07.04-.056-.011-.07.014-.089.059s-.078.092-.122.043-.069-.028-.116-.016c-.08.02-.166.017-.248.031a.656.656,0,0,0-.287.066.4.4,0,0,1-.245.067.78.78,0,0,1-.215.028,2.646,2.646,0,0,1-.332-.112l.2-.616c.018-.02.068-.053.083-.1.024-.07.02-.15.037-.224a.329.329,0,0,1,.058-.117c.018-.023.052-.034.075-.055.176-.162.36-.318.525-.49a.517.517,0,0,0,.194-.405.485.485,0,0,0,0-.094.205.205,0,0,1,.052-.2c.036-.05.1-.1.067-.18-.091-.035-.167-.127-.291-.07-.032.167-.2.26-.254.426-.007.024-.028.06-.044.061-.108.005-.131.121-.215.156a.076.076,0,0,0-.039.057c0,.076-.018.132-.1.151-.015,0-.022.043-.032.067a1.109,1.109,0,0,1-.048.112c-.067.117-.158.223-.1.376a.281.281,0,0,1-.011.139c-.012.055-.034.108-.046.163-.02.087-.09.126-.144.185s-.037.175-.116.223a.763.763,0,0,0-.1.09c-.068.056-.084.176-.2.171a2.115,2.115,0,0,1-.509,0,.454.454,0,0,0-.138,0c-.1,0-.19.01-.269.015a.208.208,0,0,1-.057-.254,1.924,1.924,0,0,0,.147-.666c0-.009.008-.018.017-.035l.093-.038c.03-.1.046-.2.147-.259.029-.017.034-.079.045-.121a.4.4,0,0,1,.186-.27c.1-.047.167-.125.271-.169-.062-.073-.12-.1-.2-.06,0-.15,0-.15-.085-.162a2.516,2.516,0,0,0-.161.263c-.041.089-.128.1-.2.134-.1.054-.127.2-.263.19-.007,0-.016.012-.021.021-.049.083-.12.157-.1.268a.234.234,0,0,1-.01.123,1.516,1.516,0,0,0-.071.477c-.007.118-.018.235-.027.348a1.038,1.038,0,0,0-.275.07.125.125,0,0,1-.165-.01c-.122.124-.268.06-.4.066-.015,0-.034-.023-.046-.039-.129-.175-.318-.132-.492-.123-.043,0-.083.021-.13,0a.374.374,0,0,0-.23.062c-.034.12-.168.095-.236.166-.013.013-.06,0-.089-.011-.049-.016-.095-.039-.154-.063,0-.143,0-.283,0-.423a.128.128,0,0,1,.045-.087.216.216,0,0,0,.079-.191c0-.119.014-.238.022-.37l-.233-.039a3.124,3.124,0,0,1-.105.337.178.178,0,0,0,.03.186.424.424,0,0,1-.034.542c-.042.045-.089.085-.141.135a1.376,1.376,0,0,1-.233-.141.236.236,0,0,1-.068-.247l-.275.045L22,39.887l-.176-.023c-.126.137-.191.146-.331.05-.019-.177-.038-.347-.054-.517a.33.33,0,0,1,.01-.076,1.437,1.437,0,0,0,.016-.216.226.226,0,0,0-.149-.217.215.215,0,0,1-.13-.1c0-.08.034-.159.008-.19a.59.59,0,0,1-.111-.282.879.879,0,0,0-.133-.243c-.008-.013-.036-.012-.056-.018-.029.162-.03.161-.2.256-.042.024-.061.069-.009.1a.258.258,0,0,1,.128.249c0,.025,0,.059.019.072.1.085.092.2.106.316,0,.03,0,.074.023.086a.319.319,0,0,1,.141.308c0,.018.02.036.028.055a1.106,1.106,0,0,1,.089.5c0,.082-.053.139-.109.112-.111-.056-.212.025-.3.007l-.088-.13c-.065.028-.112.066-.156.062a.374.374,0,0,1-.134-.066Zm5.046-18.786c.075.036.124.063.175.084a.27.27,0,0,0,.249.024c.093-.049.2-.07.289-.126a1.349,1.349,0,0,1,.531-.187c.19-.026.338-.166.532-.153.118-.118.278-.08.419-.113.122-.029.263-.01.349-.134.03-.043.07-.035.112-.022a.251.251,0,0,0,.245-.022,3.426,3.426,0,0,1,.328-.2.159.159,0,0,1,.112-.025,1.141,1.141,0,0,0,.545,0,.816.816,0,0,1,.348.019.174.174,0,0,0,.2-.043.386.386,0,0,1,.37-.1.471.471,0,0,0,.341-.055c.14-.071.293-.027.436-.064a.682.682,0,0,1,.221,0c.176.012.351.036.527.041.16,0,.321-.009.481-.02a.655.655,0,0,1,.362.076.193.193,0,0,0,.173.025.307.307,0,0,1,.24.032.729.729,0,0,0,.3.073,2.661,2.661,0,0,1,.609.038,2.195,2.195,0,0,1,.6.161.175.175,0,0,0,.118.03c.135-.035.264.033.4.012a.161.161,0,0,1,.133.049.35.35,0,0,0,.327.124.451.451,0,0,1,.308.07.207.207,0,0,0,.256.032c.064-.033.254.011.272.063a.277.277,0,0,0,.143.15,1.14,1.14,0,0,1,.141.109,1.651,1.651,0,0,1,.206-.01c.134.013.276-.04.4.046.1-.03.237.034.31-.1.006-.01.028-.012.043-.016a.4.4,0,0,0,.28-.358c.025-.14.136-.21.194-.319.011-.022.054-.025.081-.04s.059-.027.072-.05a.227.227,0,0,0-.059-.292,1.372,1.372,0,0,1-.213-.268c-.073-.125,0-.23.146-.238.065,0,.131-.039.2,0,.01.006.066-.031.072-.055a.088.088,0,0,0-.051-.072.758.758,0,0,0-.17.019.218.218,0,0,0-.2-.094c-.038,0-.106-.022-.11-.044-.021-.118-.122-.092-.193-.121a.27.27,0,0,1-.339.288c-.052-.012-.094-.022-.136.03a.065.065,0,0,1-.106-.02.606.606,0,0,0-.058-.069c-.039.021-.073.056-.1.051a.908.908,0,0,1-.253-.078c-.079-.042-.141-.116-.246-.095a.082.082,0,0,1-.069-.031c-.063-.121-.187-.085-.284-.117-.018-.006-.042.006-.059,0l-.441-.163-.125.136-.29-.017s-.024-.047-.051-.051a3.132,3.132,0,0,0-.43-.07c-.1,0-.2.015-.252-.1,0-.011-.026-.014-.04-.019-.148-.054-.294-.111-.444-.16a1.847,1.847,0,0,0-.221-.045c-.051.067-.094.155-.118.15-.088-.019-.142.069-.223.054-.037-.007-.081.006-.114-.009a.759.759,0,0,0-.306-.073.414.414,0,0,1-.23-.063c-.055-.042-.139-.118-.237-.05a.41.41,0,0,1-.3.03,1.612,1.612,0,0,1-.182-.032.114.114,0,0,1-.066-.031c-.06-.086-.13-.06-.2-.025-.019.009-.037.029-.055.027-.121-.011-.243-.025-.364-.041a1.191,1.191,0,0,0-.268-.033.324.324,0,0,1-.251-.037.221.221,0,0,0-.271,0,.126.126,0,0,1-.178-.016.649.649,0,0,1-.132.07c-.163.044-.327.081-.491.119a.058.058,0,0,1-.045,0c-.107-.081-.256.03-.359-.079-.014-.015-.06,0-.091,0a.651.651,0,0,0-.235.042c-.09.056-.166.016-.249.011a.054.054,0,0,0-.031,0,.221.221,0,0,1-.244-.017.252.252,0,0,1-.334.114c-.031-.008-.089,0-.1.011-.025.054-.057.023-.089.03a.482.482,0,0,1-.179-.013c-.028,0-.077,0-.085.017-.044.091-.121.074-.2.081a.952.952,0,0,0-.205.069s-.01-.005-.014,0a.6.6,0,0,0-.219.054.533.533,0,0,1-.252.089c-.1.016-.2,0-.269.113a.266.266,0,0,1-.146.1c-.061.018-.1.1-.185.057-.018-.009-.06.011-.079.03-.046.047-.122.1-.12.154,0,.106-.1.063-.123.114-.008.018-.013.038-.021.056a1.234,1.234,0,0,1-.152.335.857.857,0,0,0-.151.393.379.379,0,0,1-.158.251,2.187,2.187,0,0,1,.067.268A2.022,2.022,0,0,1,25.262,21.338ZM24.209,32.967a.316.316,0,0,1-.138.239.131.131,0,0,0-.05.069.162.162,0,0,1-.122.127.179.179,0,0,0-.087.073,1.094,1.094,0,0,0-.07.186.21.21,0,0,1-.227.179.454.454,0,0,0-.121.023.685.685,0,0,1-.528.052,1.47,1.47,0,0,1-.23-.071.221.221,0,0,0-.119-.025.642.642,0,0,1-.481-.168.17.17,0,0,0-.185-.046.5.5,0,0,0-.15-.069.2.2,0,0,1-.134-.067c-.026-.024-.055-.056-.086-.06a.124.124,0,0,1-.107-.1.179.179,0,0,0-.155-.131.42.42,0,0,1-.233-.1,3.33,3.33,0,0,1-.279-.371l-.34-.143-.05.068c-.022-.1-.071-.146-.157-.147a.4.4,0,0,0-.129,0,.239.239,0,0,1-.237-.012.2.2,0,0,0-.234.028.482.482,0,0,0-.092.123.247.247,0,0,1-.185.122.342.342,0,0,0-.215.1.262.262,0,0,1-.222.115.1.1,0,0,0-.069.029.376.376,0,0,1-.254.1.758.758,0,0,0-.19.044.175.175,0,0,0-.069.046.439.439,0,0,0-.1.346,1.065,1.065,0,0,1,.029.317.349.349,0,0,0,.073.316.368.368,0,0,1,.06.138.546.546,0,0,0,.158.321.372.372,0,0,1,.035.069.41.41,0,0,0,.05.073,1.63,1.63,0,0,1,.118.117.15.15,0,0,0,.128.072h.092c.074.069.123.12.177.163a2.153,2.153,0,0,0,.761.334c.072.022.132,0,.14-.09a.29.29,0,0,0,.288-.009.26.26,0,0,1,.317.029.171.171,0,0,0,.167.042.458.458,0,0,0,.247-.077c.038-.032.079-.017.1.028.014.026.027.052.043.081a1.486,1.486,0,0,0,.317-.019.2.2,0,0,1,.222.06c.022.023.043.058.068.062a3.766,3.766,0,0,0,.548.061,1.018,1.018,0,0,1,.192,0,.732.732,0,0,0,.5-.044c.128-.069.286-.084.388-.2.1.039.133-.058.188-.1s.078-.1.122-.139c.027-.027.066-.064.1-.061.117.014.176-.049.219-.151a.39.39,0,0,0,.368-.02.737.737,0,0,1,.285-.065,1.452,1.452,0,0,0,.449-.156c.059-.022.094-.093.178-.044.051.03.119,0,.18.058a.24.24,0,0,0,.365-.011.137.137,0,0,1,.077-.038c.1,0,.2,0,.313-.006.035-.095.072-.194.108-.294.047-.129.1-.258.139-.388a.207.207,0,0,0,.011-.135c-.052-.11-.069-.256-.229-.262-.034-.2-.066-.23-.25-.246a.249.249,0,0,1-.188-.086.273.273,0,0,0-.095-.061c-.023-.012-.064-.009-.071-.024-.044-.1-.137-.082-.2-.064-.141.04-.21-.034-.278-.13a.183.183,0,0,0-.032-.03l-.062.072c-.133-.007-.189-.089-.219-.209-.1.054-.225-.016-.308.088-.012.015-.05.007-.075.014-.048.015-.1.033-.144.049Zm10.7-8.831c.087.155.077.263-.047.509l.425.3.274-.118a.718.718,0,0,0-.019-.119c-.013-.038-.051-.072-.054-.11-.009-.124-.1-.185-.182-.252a.211.211,0,0,1-.062-.284,1.044,1.044,0,0,1,.174-.171,1.466,1.466,0,0,0,.219-.194.165.165,0,0,1,.135-.082A.258.258,0,0,0,36,23.483c.238-.016.238-.016.3-.141a.6.6,0,0,1-.616-.221,1.213,1.213,0,0,1,.18-.285,2.661,2.661,0,0,0,.33-.427c.027-.037.023-.095.037-.143a.159.159,0,0,1,.031-.064c.064-.068.128-.136.2-.2a1.08,1.08,0,0,1,.19-.156c.1-.061.109-.055.072-.191l-.248-.031c-.033.045-.071.114-.081.11-.087-.034-.118.042-.168.076a1.505,1.505,0,0,1-.183.14.654.654,0,0,0-.121.077c-.091.066-.194.112-.226.232,0,.008-.017.011-.026.017-.092.054-.142.124-.1.206a.245.245,0,0,1-.038.258.5.5,0,0,0-.087.338.412.412,0,0,1-.043.194,2.151,2.151,0,0,1-.107.208.188.188,0,0,1-.179.113.4.4,0,0,0-.36.132.059.059,0,0,1-.041.016c-.105.011-.177.131-.3.092-.013,0-.037.033-.059.046a.889.889,0,0,1-.267.146.836.836,0,0,0-.251.05c-.062-.121-.062-.121-.2-.1a.162.162,0,0,1-.031,0c-.143.008-.19-.034-.187-.176a.625.625,0,0,1,.312-.507.684.684,0,0,0,.246-.22.146.146,0,0,1,.051-.054c.117-.072.176-.2.3-.273.02-.011.025-.055.032-.085s.014-.081.02-.117c.185-.06.185-.06.159-.275-.153-.077-.185-.066-.313.063a3.694,3.694,0,0,1-.378.341c-.1.079-.171.2-.3.252a.247.247,0,0,0-.115.169.2.2,0,0,1-.081.14c-.094.071-.074.183-.1.28.095.149.02.3.018.453-.062,0-.131-.021-.167,0a1.368,1.368,0,0,1-.28.1.168.168,0,0,1-.182-.022.769.769,0,0,1-.573.061c.062-.158.12-.3.177-.449a.023.023,0,0,1,.011-.011c.141-.039.141-.186.209-.28a.219.219,0,0,0-.07-.26c-.058-.029-.127,0-.2.091-.01.012-.017.026-.026.039a1.258,1.258,0,0,0-.168.272c-.035.108-.118.129-.2.171a.547.547,0,0,1-.123.167.13.13,0,0,0-.034.1.258.258,0,0,1-.086.295l-.322-.068c-.112.1-.208-.02-.313-.023-.006,0-.011,0-.016,0-.039-.01-.077-.021-.116-.03a.2.2,0,0,0-.084-.014c-.163.033-.209,0-.244-.163-.007-.033-.017-.088-.037-.094-.085-.024-.095-.084-.1-.156,0-.021-.027-.056-.045-.058-.147-.017-.129-.124-.127-.223v-.143c-.111-.016-.134-.094-.139-.189,0-.044-.006-.115-.032-.126-.077-.036-.075-.105-.1-.165-.015-.037-.059-.1-.067-.094-.091.037-.132-.073-.206-.069a4.688,4.688,0,0,0,.349.724.22.22,0,0,1,0,.217.4.4,0,0,0-.1.315c-.072.041-.129.087-.21.033a.137.137,0,0,0-.117.012.158.158,0,0,1-.161,0,.325.325,0,0,0-.117-.029,2.426,2.426,0,0,1-.653-.035c-.116.054-.217-.093-.336-.027,0,0-.022-.006-.025-.013-.063-.148-.212-.111-.307-.1a2.979,2.979,0,0,1-.425-.023c-.214-.008-.444-.1-.622.106-.007.007-.017.018-.025.017-.124-.011-.2.109-.318.117a.418.418,0,0,0-.1.04c.027.016.035.025.043.025a1.567,1.567,0,0,1,.771.125.216.216,0,0,0,.057.024c.122.016.246.027.368.045.14.021.291-.01.419.08a.092.092,0,0,0,.062,0,.833.833,0,0,1,.416.082,1.707,1.707,0,0,0,.237.074c.152.025.312.023.408.176.01.014.037.018.054.026.1-.09.112-.094.17-.067a1.693,1.693,0,0,0,.18.079c.1.034.111.047.046.126-.039.047-.041.087,0,.12a.417.417,0,0,1,.123.4.389.389,0,0,1-.052.032.2.2,0,0,0-.15.226c0,.1,0,.208,0,.312a.272.272,0,0,1-.053.173c-.08.109-.144.229-.215.344a.372.372,0,0,0-.058.223c.007.1.048.155.13.159a.145.145,0,0,0,.144-.134,1.276,1.276,0,0,1,.194-.536,2.369,2.369,0,0,1,.332-.553c.053-.061.079-.145.131-.208a.149.149,0,0,1,.12-.039c.1.02.2.064.295.083a1.221,1.221,0,0,0,.257.018q.3,0,.606-.015a.142.142,0,0,1,.146.09.421.421,0,0,1-.045.446c-.078.123-.08.272-.2.393a.64.64,0,0,0,.211.072.565.565,0,0,0,.2-.079.1.1,0,0,0,.046-.076,1.49,1.49,0,0,0,0-.613.265.265,0,0,1-.012-.066c.054-.046.127-.078.14-.127a.219.219,0,0,1,.231-.163c.179-.015.321-.165.512-.139.01,0,.022-.022.036-.028a.8.8,0,0,1,.16-.055.319.319,0,0,0,.2-.074c.049-.047.093-.023.129.046.013.025.039.043.05.068.046.115.143.2.152.345a.453.453,0,0,0,.151.39c.017.011.014.048.025.07a.652.652,0,0,0,.055.082c.064.08.149.05.228.051a.618.618,0,0,1,.025-.1c.046-.1.115-.2-.062-.243-.013,0-.015-.037-.026-.054-.091-.131-.17-.275-.327-.306a1.161,1.161,0,0,0-.073-.3.66.66,0,0,1-.055-.479,1.029,1.029,0,0,0,.157-.045c.144-.068.285-.142.428-.212.019-.009.039-.016.058-.023a1.193,1.193,0,0,1,.367-.035c.142,0,.291.039.417-.073C34.82,24.135,34.868,24.142,34.91,24.136ZM27.643,43.92c.12.143.3.153.408.279a.055.055,0,0,0,.042.019c.095-.032.162.044.219.084.1.065.15.041.225-.04a.876.876,0,0,0-.7-.273l.047-.1-.129-.051Zm-7.152-5.884c.016.06.026.112.044.161,0,.011.036.02.049.015a.055.055,0,0,0,.031-.043A.13.13,0,0,0,20.491,38.036Zm5.631.2.018.039c.038-.015.108.018.1-.094Zm-1.71,13.3c-.049-.06-.049-.06-.117-.012ZM20.371,37.92c.011.019.016.04.03.05a.3.3,0,0,0,.07.023C20.446,37.912,20.446,37.912,20.371,37.92Z"/><path class="a" d="M43.466,24.708a.6.6,0,0,0,.233-.275.2.2,0,0,0,.016-.09c0-.125.028-.158.15-.142a.555.555,0,0,1,.126.054c-.028.026-.051.037-.054.053-.031.135-.058.271-.086.406a.148.148,0,0,1,0,.031,1.422,1.422,0,0,0-.042.7,2.208,2.208,0,0,0,.005.407c.032.13.01.261.039.392a3.858,3.858,0,0,1,.051.539c0,.017-.015.036-.024.055-.046.1-.046.1.029.2-.03.081-.062.161-.091.243a.177.177,0,0,0-.013.092.83.83,0,0,1-.029.377,1.475,1.475,0,0,0,0,.188c0,.065-.009.13-.014.209a.194.194,0,0,1,.034.274.763.763,0,0,0-.05.274,3.316,3.316,0,0,1-.122.623.567.567,0,0,1-.12.269c-.026.027-.014.09-.021.136-.011.067.012.151-.087.179-.016,0-.024.042-.031.065-.027.092-.032.186-.127.255a.336.336,0,0,0-.086.212.475.475,0,0,1-.073.18,2.113,2.113,0,0,0-.076.211,2.171,2.171,0,0,1-.115.212c-.047.082-.1.161-.164.268-.07.015-.119.084-.129.19a.092.092,0,0,1-.09.091c-.032,0-.06.035-.092.05-.073.034-.147.065-.229.1a.242.242,0,0,1,.015.105.159.159,0,0,1-.08.1c-.14.046-.285.078-.428.116a.142.142,0,0,0-.115.127c-.019.111-.022.105-.154.086a.777.777,0,0,0-.192.018.784.784,0,0,1-.073.107.164.164,0,0,1-.091.053,1.113,1.113,0,0,0-.241.017c-.117.045-.24.006-.359.048-.051.018-.135-.05-.2-.084s-.047-.084-.061-.135a1.07,1.07,0,0,1,0-.471c.014-.084-.007-.174.006-.258a.551.551,0,0,1,.077-.163.875.875,0,0,1,.391-.334c.076-.041.135-.073.161-.159.007-.022.053-.029.072-.051a.329.329,0,0,0,.037-.085h-.292l-.034-.19-.1-.014c-.007-.051-.019-.105-.023-.161a.5.5,0,0,0-.041-.256c-.01-.018,0-.05,0-.075a.6.6,0,0,1,.307-.528c.034-.019.051-.065.08-.095a2.51,2.51,0,0,1,.192-.194,1.508,1.508,0,0,0,.313-.43.2.2,0,0,1,.062-.067.727.727,0,0,0,.316-.444c.033-.117.052-.263.211-.3a2.9,2.9,0,0,0,.611-.7c.04-.084.082-.166.122-.25A.16.16,0,0,0,42.693,27c0-.121-.006-.244-.01-.365a2.207,2.207,0,0,1,.034-.392.468.468,0,0,1,.119-.318c.017-.015.016-.059.014-.089a.35.35,0,0,1,.158-.322c-.005-.02,0-.04-.013-.048a1.376,1.376,0,0,1-.289-.437,2,2,0,0,0-.186-.3.3.3,0,0,1,.006-.349c.026-.048.045-.1.068-.15a.23.23,0,0,1,.035-.068.222.222,0,0,0,.08-.225.3.3,0,0,1,.146-.273c.07-.043.123-.031.146.047.031.1.044.2.149.261a.032.032,0,0,1,.014.027c-.016.147.09.251.134.376a.271.271,0,0,1,.029.1A.249.249,0,0,0,43.466,24.708Z"/><path class="a" d="M.914,30.065c-.1-.01-.12-.077-.119-.15a1.723,1.723,0,0,0-.1-.546,1.4,1.4,0,0,0-.127-.414.032.032,0,0,1,0-.03c.1-.168-.045-.3-.071-.444a.253.253,0,0,1-.012-.107.313.313,0,0,0-.022-.212c-.025-.066.012-.155.022-.232.084-.007.129.014.128.09a.46.46,0,0,0,.146.316c.016.017.04.043.037.059-.035.147.07.242.142.338a1.311,1.311,0,0,1,.1.2c.03.059.035.135.122.146a.036.036,0,0,1,.024.017c.068.186.246.236.394.325a1.031,1.031,0,0,0,.244.155c.02.006.035.048.041.075a.277.277,0,0,0,.164.209.409.409,0,0,1,.1.087c.03.029.049.077.083.09a.435.435,0,0,1,.231.25l.426.092a.919.919,0,0,0-.039.13.287.287,0,0,0,.079.3.677.677,0,0,1,.111.183l-.072.137a.446.446,0,0,1,.172.355c.007.043.039.082.05.125.026.11.168.179.1.324-.011.025.041.077.062.118a1.037,1.037,0,0,0,.056.122c.094.143,0,.273-.026.407a.132.132,0,0,1-.14.117.279.279,0,0,0-.107.02.217.217,0,0,1-.2-.023.787.787,0,0,0-.265-.065,1.463,1.463,0,0,1-.371-.168.05.05,0,0,1-.026-.036c.005-.148-.135-.2-.2-.3a.649.649,0,0,0-.265-.249l.012-.145L1.637,31.6c.037-.077.057-.155-.049-.2-.019-.009-.032-.04-.04-.064a1.6,1.6,0,0,0-.113-.178c-.062-.122-.2-.193-.227-.332,0-.015-.011-.036-.022-.04-.144-.059-.12-.193-.133-.306-.008-.067-.017-.119-.088-.15a.122.122,0,0,1-.049-.084A1.258,1.258,0,0,1,.914,30.065Zm1.528.982a.273.273,0,0,0,.032.283C2.574,31.205,2.569,31.15,2.442,31.047Zm.063-.205c-.074.026-.1.063-.026.127Z"/><path class="a" d="M.97,25.861l.049.109L.905,26c0,.009-.006.019,0,.026.009.025.013.062.03.07.174.077.113.207.08.331A.224.224,0,0,1,1,26.453L.92,26.47c.006.008.011.019.015.019.067,0,.11.026.111.1a.49.49,0,0,0,.1.257.576.576,0,0,1,.039.1c.009.024.014.061.031.068a.319.319,0,0,1,.188.194c.007.019.069.019.117.03A.192.192,0,0,0,1.6,27.5a.128.128,0,0,1,.029.111,1.5,1.5,0,0,0,.059.5c0,.034.059.063.1.106,0,.028,0,.075.01.121a.118.118,0,0,0,.025.072c.064.053.133.1.2.149a.136.136,0,0,1,.04.043c.052.115.163.16.255.231a.593.593,0,0,0,.277.125c.082.013.11.079.1.165l-.014.114a.225.225,0,0,1,.152.2.092.092,0,0,0,.041.061,1.618,1.618,0,0,1,.365.378.485.485,0,0,0,.11.107.294.294,0,0,1,.156.233.686.686,0,0,0,.05.129c.031.1,0,.158-.107.179-.054.011-.106.029-.171.048-.1-.183-.317-.2-.477-.328v-.127a2.852,2.852,0,0,1-.277-.3.21.21,0,0,1-.024-.27c.014-.018,0-.057-.024-.095l-.15.239-.123.015v-.439c-.133-.013-.255.007-.334-.116-.061-.095-.2-.125-.227-.262-.084.019-.122-.031-.17-.089-.078-.094-.221-.128-.247-.272a.03.03,0,0,0-.023-.019c-.109-.013-.108-.116-.141-.184a.407.407,0,0,0-.126-.186.1.1,0,0,1-.033-.124.146.146,0,0,0-.044-.172c-.141-.1-.124-.256-.133-.393a2.225,2.225,0,0,0-.02-.415.826.826,0,0,1,.01-.209.248.248,0,0,0-.011-.106.477.477,0,0,1,.038-.445c.035-.06.009-.119.021-.173A.326.326,0,0,1,.97,25.861Z"/><path class="a" d="M.537,21.344a.436.436,0,0,1-.289-.191A3.98,3.98,0,0,0,0,20.831c.139-.165.3-.162.412-.012.027.034.067.06.093.1s.056.129.1.143c.07.023.1.054.1.121l.174.03c-.032.155.081.244.149.355.1.17.211.34.312.512.026.043.027.1.05.145.034.069.031.146.109.209a.374.374,0,0,1,.09.268c0,.081.006.2-.137.229a.458.458,0,0,0-.352-.1,3.764,3.764,0,0,1-.317-.3A.553.553,0,0,1,.678,22.3a.325.325,0,0,0-.087-.158A.331.331,0,0,1,.508,22a.154.154,0,0,0-.144-.135c-.006-.071-.012-.133-.017-.195s.012-.136.1-.151S.564,21.441.537,21.344Z"/><path class="a" d="M2.531,27.714c.195-.084.195-.084.277-.074,0,.076,0,.154,0,.231a.152.152,0,0,0,.09.165c.084.05.129.167.189.256.034.049.063.1.1.152.016.025.049.047.051.072a.363.363,0,0,0,.114.215.093.093,0,0,1,.017.127c-.028.038-.079.025-.116.035-.082.022-.145-.031-.217-.021a.269.269,0,0,1-.257-.112c-.07-.083-.177-.142-.158-.28,0-.032-.032-.077-.061-.1a.229.229,0,0,1-.067-.214C2.5,28.014,2.516,27.867,2.531,27.714Z"/><path class="a" d="M43.41,19.663c.012-.18.012-.18.116-.281.086.018.072.088.073.149,0,.1,0,.2,0,.292s.007.184,0,.275-.093.136-.209.112l-.07.3c-.1.079-.188.146-.272.216a.084.084,0,0,0-.017.058A.243.243,0,0,1,42.9,21a.259.259,0,0,1-.013-.415.455.455,0,0,0,.128-.219.64.64,0,0,1,.089-.177c.064-.083.132-.158.074-.275-.031-.064.015-.113.06-.147A1.548,1.548,0,0,1,43.41,19.663Z"/><path class="a" d="M41.526,27.539c0,.118.015.225-.1.3-.041.024-.06.093-.08.145a.26.26,0,0,1-.231.163.394.394,0,0,1-.048-.112.555.555,0,0,1,.122-.433.775.775,0,0,0,.146-.282.851.851,0,0,1,.2-.289.1.1,0,0,1,.158.021.268.268,0,0,1,.017.135,1.273,1.273,0,0,1-.047.21A.176.176,0,0,1,41.526,27.539Z"/><path class="a" d="M8.6,23.244a1.065,1.065,0,0,1,.156.049.093.093,0,0,1,.05.067c0,.023-.03.053-.055.063a.2.2,0,0,1-.1.01c-.035,0-.1-.019-.1-.031,0-.111-.16-.072-.165-.177,0-.061-.017-.122-.019-.184a.216.216,0,0,1,.137-.149.078.078,0,0,1,.094.079C8.6,23.059,8.6,23.147,8.6,23.244Z"/><path class="a" d="M32.735,4.281l-.17.091A.283.283,0,0,0,32.3,4.26a.128.128,0,0,1-.131-.128c.112-.118.109-.109.262-.062A.793.793,0,0,1,32.735,4.281Z"/><path class="a" d="M8.805,22.815a.356.356,0,0,1-.092-.1c-.022-.048.037-.111.1-.118s.159.051.164.093S8.91,22.807,8.805,22.815Z"/><path class="a" d="M31.967,3.553l-.1.171-.1-.106-.091.021c-.051-.07-.006-.106.037-.134C31.806,3.446,31.863,3.545,31.967,3.553Z"/><path class="a" d="M29.358,1.622c.091-.151.137-.149.227,0Z"/><path class="a" d="M1.071,25.8c-.078-.083-.025-.138.017-.2C1.218,25.694,1.216,25.723,1.071,25.8Z"/><path class="a" d="M32.132,3.532c.03.039.109.031.093.127l-.122.02L32.1,3.543Z"/><path class="a" d="M43.951,23.708l.077-.072c.019.02.056.044.053.061s-.036.053-.055.079Z"/><path class="a" d="M32.867,4.25c.056.057.056.057.012.137C32.828,4.329,32.828,4.329,32.867,4.25Z"/><path class="a" d="M11.807,5.579l-.128.057.074-.18c.026.067.038.1.049.128Z"/><path class="a" d="M32.793,44.12c-.014.01-.027.024-.032.021a.041.041,0,0,1-.023-.03c0-.008.016-.017.025-.025Z"/><path class="a" d="M24.933,41.68l-.124.109c.01.149,0,.159-.154.228-.026.012-.043.041-.066.061a.336.336,0,0,1-.08.063c-.125.049-.147.107-.077.216l.027.046a.226.226,0,0,1-.146.165c-.11-.074-.246-.125-.224-.306l-.082.084a.219.219,0,0,1,.032.21.533.533,0,0,1,.1.1.094.094,0,0,1-.022.089c-.113.037-.229.065-.36.1l-.02.121c-.078.061-.134.1-.186.146a.165.165,0,0,1-.24-.047.329.329,0,0,1-.021-.081.186.186,0,0,1-.169-.091c-.039-.063-.053-.191-.186-.172-.013,0-.044-.055-.049-.087-.014-.1-.02-.207-.03-.311,0-.035,0-.089-.018-.1-.115-.081-.062-.18-.022-.262s.039-.194.145-.263.109-.1.258-.016a.286.286,0,0,1,.255-.064.17.17,0,0,0,.2-.105c.03-.065.069-.088.148-.042s.2.047.276.13c.01.012.08-.01.1-.034a.279.279,0,0,1,.335-.086.235.235,0,0,0,.153.022c.134-.052.181.028.225.124A.483.483,0,0,1,24.933,41.68Z"/><path class="a" d="M21.9,41.565a.289.289,0,0,0,.03.09c.019.024.067.059.08.051.135-.078.259,0,.385.025.051.01.121-.05.151.028a.4.4,0,0,1,.049.3.887.887,0,0,0-.044.291c-.007.075-.032.148-.042.224a.162.162,0,0,0,.016.1.1.1,0,0,1-.03.138c-.022.019-.074,0-.112,0s-.047,0-.07-.007a.757.757,0,0,1-.123-.022c-.04-.009-.028.073-.107.041s-.166,0-.223-.087c-.009-.014-.06.005-.084-.006a.237.237,0,0,1-.105-.073c-.03-.047.009-.078.045-.115.087-.09.184-.038.278-.034-.041-.15-.06-.163-.178-.093a.092.092,0,0,1-.124-.012.818.818,0,0,1-.119-.161.193.193,0,0,1-.012-.085c0-.029.01-.067,0-.085-.109-.145-.008-.292-.007-.436,0-.084.11-.122.242-.1A1,1,0,0,1,21.9,41.565Z"/><path class="a" d="M20.371,41.864c-.071-.068-.072-.2-.2-.176-.028-.152.006-.211.124-.266a.508.508,0,0,1,.283-.046,2.788,2.788,0,0,0,.341-.011c.117,0,.15.035.147.146,0,.157,0,.154.155.151a.114.114,0,0,1,.089.042.256.256,0,0,1,.021.226.247.247,0,0,0-.024.186.393.393,0,0,1-.031.177,1.064,1.064,0,0,1-.09.161c-.049.082-.108.095-.193.041a.451.451,0,0,0-.218-.1c-.024,0-.067-.056-.066-.086a2.213,2.213,0,0,1,.035-.324c.014-.08-.005-.119-.083-.121C20.561,41.862,20.464,41.864,20.371,41.864Z"/><path class="a" d="M25.757,38.954a.418.418,0,0,1-.049.038s-.023-.019-.022-.028a.044.044,0,0,1,.024-.032C25.718,38.929,25.732,38.942,25.757,38.954Z"/><path class="a" d="M19.367,39.273c.012.022.023.034.024.048s-.009.024-.014.036a.155.155,0,0,1-.039-.032C19.335,39.32,19.35,39.3,19.367,39.273Z"/></svg>