<svg xmlns="http://www.w3.org/2000/svg" viewBox="0 0 341.509 511.998"><defs><style>.a{fill:#fff;}</style></defs><title>letsrock</title><path class="a" d="M331.851,40.77c-7.585-8.533-18.963-12.326-33.185-12.326-13.274,0-32.237,7.585-42.667,44.563l-22.756,84.385c-7.585-8.533-18.015-15.17-30.341-15.17-.145,0-.286.014-.431.016-.173,0-.344-.016-.517-.016-13.8,0-25.224,7.73-32.607,18.526-.129-.156-.262-.309-.392-.464-7.344-9.8-18.1-16.962-30.49-17.936-.111-.009-.221-.023-.333-.031-.843-.059-1.692-.095-2.549-.095-.676,0-1.352.025-2.028.063-.29.016-.577.042-.865.065-.352.029-.7.06-1.055.1q-.583.064-1.16.146c-.19.027-.379.059-.568.09a38.507,38.507,0,0,0-20.883,10.842L94.814,55.941c-.948-9.481-2.844-18.015-5.689-24.652C86.281,23.7,77.747,0,52.148,0,41.718,0,31.289,4.741,22.755,14.222A45.578,45.578,0,0,0,9.481,49.3L27.5,288.236C2.844,300.562,0,318.577,0,359.347v.948c0,39.822,27.5,70.163,37.926,79.644v34.133A38.038,38.038,0,0,0,75.852,512H246.519a38.038,38.038,0,0,0,37.926-37.926V439.939c28.444-38.874,28.444-43.615,28.444-117.57V304.354L341.333,76.8C342.281,61.63,339.436,49.3,331.851,40.77Zm-104.3,148.86v104.3c0,13.274-9.482,28.444-22.756,28.444s-24.652-15.17-24.652-28.444V189.63c0-8.646,4.024-18.092,10.5-23.631a17,17,0,0,1,10.362-3.865c11.378,0,20.859,11.378,23.7,21.807a14.65,14.65,0,0,0,2.773,3.949C227.526,188.472,227.555,189.053,227.555,189.63Zm-84.092,95.38a63.715,63.715,0,0,0,4.447-8.151c9.482-19.911,0-48.356-18.963-59.733a32.355,32.355,0,0,0-16.119-4.353V189.63a32.834,32.834,0,0,1,6.558-18.929c3.88-4.484,8.829-7.62,14.3-7.62,11.378,0,20.859,11.378,23.7,21.807a14.546,14.546,0,0,0,2.825,4c.008.248.02.5.02.742v104.3c0,13.274-9.481,28.444-22.756,28.444-5.689,0-11.378-2.844-16.119-8.533C131.5,302.981,138.856,293.235,143.463,285.01ZM36.977,26.548c4.741-4.741,10.43-7.585,15.17-7.585,6.637,0,13.274,1.9,19.911,18.963A93.452,93.452,0,0,1,76.8,60.682L94.515,181.9a48.046,48.046,0,0,0-.649,7.735v29.924a61.257,61.257,0,0,0-14.222,15.587c-6.11,8.4-16.531,23.569-33.731,38.566L28.444,48.356C27.5,40.77,31.288,33.185,36.977,26.548ZM322.37,74.9,293.926,302.46v19.911c0,72.059,0,72.059-26.548,108.089-.948,1.9-1.9,3.793-1.9,5.689v37.926a19.018,19.018,0,0,1-18.963,18.963H75.851a19.018,19.018,0,0,1-18.963-18.963V436.149a10.767,10.767,0,0,0-2.844-7.585c-.948,0-34.133-28.444-35.081-67.318,0-45.511,2.844-50.252,22.756-58.785a10.03,10.03,0,0,0,4.373-4.25c26.244-18.461,40.54-39.871,48.723-51.691,2.769-4.154,6.214-8.527,10.112-11.271a6.653,6.653,0,0,0,3.162-1.055,12.8,12.8,0,0,1,7.559-1.277,12.508,12.508,0,0,1,2.87,1.277c10.43,5.689,16.119,24.652,11.378,35.081s-18.963,29.393-60.681,64.474c-3.793,2.844-4.741,9.482-.948,13.274a8.625,8.625,0,0,0,7.585,3.793,10.243,10.243,0,0,0,6.637-2.844Q96,336.29,107.012,325.924c8.382,9.669,19.419,15.411,30.47,15.411,13.7,0,25.342-7.618,32.827-18.288,7.908,10.67,19.844,18.288,33.543,18.288,24.652,0,42.667-24.652,41.719-47.407V189.63a42.717,42.717,0,0,0-.285-4.807,7.684,7.684,0,0,0,.285-.882l28.443-104.3c2.844-11.378,11.378-31.289,24.652-31.289,9.482,0,15.17,1.9,18.963,5.689S323.318,65.422,322.37,74.9Z"/></svg>